<?xml version="1.0" standalone="no"?>
<!DOCTYPE svg PUBLIC "-//W3C//DTD SVG 20010904//EN"
 "http://www.w3.org/TR/2001/REC-SVG-20010904/DTD/svg10.dtd">
<svg version="1.0" xmlns="http://www.w3.org/2000/svg"
 width="512.000000pt" height="512.000000pt" viewBox="0 0 512.000000 512.000000"
 preserveAspectRatio="xMidYMid meet">

<g transform="translate(0.000000,512.000000) scale(0.100000,-0.100000)"
fill="#000000" stroke="none">
<path d="M2410 5105 c-296 -59 -531 -278 -617 -573 -13 -46 -18 -120 -22 -377
l-6 -320 -370 -5 c-342 -5 -372 -6 -398 -24 -15 -10 -35 -33 -44 -50 -13 -24
-50 -401 -165 -1656 -166 -1817 -160 -1698 -92 -1838 62 -127 184 -222 322
-251 75 -16 3009 -16 3084 0 138 29 260 124 322 251 68 140 74 21 -92 1838
-118 1292 -152 1632 -166 1657 -35 68 -30 67 -441 73 l-370 5 -6 320 c-6 347
-9 370 -70 503 -59 131 -183 270 -307 346 -164 99 -378 138 -562 101z m264
-300 c134 -35 258 -129 318 -241 52 -97 58 -143 58 -451 l0 -283 -490 0 -490
0 0 283 c0 308 6 354 58 451 15 28 54 78 87 111 121 121 299 171 459 130z
m-902 -1547 c3 -265 4 -274 26 -305 28 -40 98 -68 147 -59 47 9 102 59 115
104 5 21 10 147 10 285 l0 247 490 0 490 0 0 -247 c0 -138 5 -264 10 -285 13
-45 68 -95 115 -104 49 -9 119 19 147 59 22 31 23 40 26 305 l3 272 274 0
c151 0 275 -1 275 -3 0 -2 63 -692 139 -1534 112 -1227 138 -1540 129 -1570
-13 -48 -77 -110 -120 -118 -18 -3 -699 -4 -1514 -3 l-1481 3 -37 29 c-21 16
-47 48 -58 72 l-19 44 136 1487 c74 819 138 1512 141 1541 l6 52 274 0 273 0
3 -272z"/>
</g>
</svg>
